<?xml version="1.0" encoding="UTF-8" standalone="no"?><!DOCTYPE svg PUBLIC "-//W3C//DTD SVG 1.1//EN" "http://www.w3.org/Graphics/SVG/1.1/DTD/svg11.dtd"><svg width="100%" height="100%" viewBox="0 0 50 50" version="1.1" xmlns="http://www.w3.org/2000/svg" xmlns:xlink="http://www.w3.org/1999/xlink" xml:space="preserve" xmlns:serif="http://www.serif.com/" style="fill-rule:evenodd;clip-rule:evenodd;stroke-linejoin:round;stroke-miterlimit:1.41421;"><path id="CircleFace" d="M25,0c13.798,0 25,11.202 25,25c0,13.798 -11.202,25 -25,25c-13.798,0 -25,-11.202 -25,-25c0,-13.798 11.202,-25 25,-25Zm0,4.021c11.579,0 20.979,9.4 20.979,20.979c0,11.579 -9.4,20.979 -20.979,20.979c-11.579,0 -20.979,-9.4 -20.979,-20.979c0,-11.579 9.4,-20.979 20.979,-20.979Z" style="fill:#4d4d4d;"/><path id="LeftEye" d="M16.289,17.577c1.663,0.446 2.573,2.451 2.031,4.475c-0.542,2.024 -2.333,3.305 -3.996,2.859c-1.664,-0.445 -2.574,-2.45 -2.031,-4.474c0.542,-2.024 2.333,-3.306 3.996,-2.86Z" style="fill:#4d4d4d;"/><path id="RightEye" d="M33.003,17.577c1.664,-0.446 3.454,0.836 3.997,2.86c0.542,2.024 -0.368,4.029 -2.031,4.474c-1.664,0.446 -3.454,-0.835 -3.997,-2.859c-0.542,-2.024 0.368,-4.029 2.031,-4.475Z" style="fill:#4d4d4d;"/><path id="MouthHappy" d="M16.04,30.467l17.972,0c0.438,0.013 0.57,0.065 0.809,0.171c3.55,1.569 -1.877,10.48 -9.552,10.683c-0.122,0.002 -0.243,0.002 -0.365,0.002c-4.806,-0.077 -9.357,-3.465 -10.729,-8.104c-0.389,-1.314 0.29,-2.705 1.865,-2.752Z" style="fill:#4d4d4d;"/></svg>